<svg id="Camada_2" xmlns="http://www.w3.org/2000/svg" viewBox="0 0 700 192.75"><defs><style>.cls-1{fill:#fff;stroke-width:0px;}</style></defs><g id="Camada_1-2"><path class="cls-1" d="m334.78,155.56c-33.82,0-43.96-23.67-43.96-47.34s10.14-47.34,43.96-47.34,43.96,23.67,43.96,47.34-10.14,47.34-43.96,47.34m0-131.88c-54.11,0-84.54,33.82-84.54,84.54s30.43,84.54,84.54,84.54,84.54-33.82,84.54-84.54-30.43-84.54-84.54-84.54"/><path class="cls-1" d="m642.51,91.3c-16.58-4.74-20.29-10.92-20.29-16.35,0-7.32,6.76-14.08,20.29-14.08,9.88,0,20.67,2.44,30.6,8.81l23.04-26.13c-15.48-14.16-33.11-19.88-57.03-19.88-37.2,0-57.49,21.98-57.49,52.42,0,32.13,27.05,42.27,54.11,49.03,22.5,5.62,23.67,11.13,23.67,16.91s-6.76,13.53-20.29,13.53c-11.72,0-23.43-2.55-33.57-9.28l-23.48,26.62c15.67,14.34,39.29,19.86,60.43,19.86,40.58,0,57.49-28.74,57.49-50.72,0-37.2-33.82-43.96-57.49-50.72"/><polygon class="cls-1" points="529.23 27.05 493.72 79.6 458.21 27.05 412.56 27.05 470.31 108.21 412.56 189.37 458.21 189.37 493.72 136.82 529.23 189.37 574.88 189.37 517.13 108.21 574.88 27.05 529.23 27.05"/><rect class="cls-1" x="189.37" width="40.58" height="189.37"/><path class="cls-1" d="m109.9,152.17H40.58v-38.89h69.32c12.68,0,18.6,8.72,18.6,19.44s-5.92,19.44-18.6,19.44M40.58,37.2h55.8c12.68,0,18.6,8.72,18.6,19.44s-5.92,19.44-18.6,19.44h-55.8v-38.89Zm101.45,50.72c6.76-6.76,13.53-19.92,13.53-31.28,0-31.23-22.83-56.64-59.18-56.64H0v189.37h109.9c36.35,0,59.18-25.41,59.18-56.64,0-24.52-13.53-38.04-27.05-44.81"/></g></svg>